<svg aria-hidden="true" style="position: absolute; width: 0; height: 0; overflow: hidden;" version="1.1" xmlns="http://www.w3.org/2000/svg" xmlns:xlink="http://www.w3.org/1999/xlink">
<defs>
<symbol id="icon-close-icon" viewBox="0 0 32 32">
<path d="M1.645 32c-0.001 0-0.001 0-0.002 0-0.909 0-1.645-0.737-1.645-1.645 0-0.455 0.185-0.867 0.484-1.165l28.706-28.706c0.301-0.317 0.725-0.515 1.196-0.515 0.91 0 1.647 0.737 1.647 1.647 0 0.47-0.197 0.894-0.512 1.194l-0.001 0.001-28.706 28.706c-0.299 0.299-0.711 0.484-1.167 0.484h-0z"></path>
<path d="M30.355 32c-0.001 0-0.002 0-0.003 0-0.454 0-0.864-0.185-1.16-0.484l-28.71-28.706c-0.28-0.295-0.452-0.694-0.452-1.133 0-0.91 0.737-1.647 1.647-1.647 0.439 0 0.839 0.172 1.134 0.453l-0.001-0.001 28.706 28.706c0.3 0.298 0.486 0.711 0.486 1.167 0 0.909-0.737 1.645-1.645 1.645v0z"></path>
</symbol>
<symbol id="icon-down-btn" viewBox="0 0 52 32">
<path  d="M26 32l-25.98-30h51.96l-25.98 30z"></path>
</symbol>
<symbol id="icon-logo" viewBox="0 0 38 32">
<path d="M0.080 32c4.986 0 9.924-0.828 14.531-2.436s8.793-3.965 12.318-6.937c3.526-2.971 6.323-6.499 8.231-10.382s2.89-8.043 2.89-12.246h-37.97v32z"></path>
<path d="M13.122 14.532c-0.203-0.565-0.622-0.847-1.255-0.847h-0.2v3.484h0.2c0.489 0 0.85-0.193 1.084-0.579 0.196-0.329 0.295-0.748 0.295-1.257-0-0.303-0.042-0.57-0.124-0.801zM9.693 14.574c0.203 0.565 0.622 0.847 1.254 0.847h0.2v-3.485h-0.2c-0.489 0-0.851 0.193-1.084 0.579-0.196 0.329-0.294 0.748-0.294 1.257 0 0.302 0.041 0.569 0.123 0.801zM6.368 6.373h2.658v0.923h-1.704v0.461h1.416v0.876h-1.416v0.467h1.704v0.923h-2.658v-3.649zM10.363 6.368h3.44l-1.72 3.728-1.72-3.728zM12.083 9.635l1.421-3.073h-2.837l1.416 3.073zM15.177 6.373h2.658v0.923h-1.704v0.461h1.416v0.876h-1.416v0.467h1.704v0.923h-2.658v-3.649zM19.471 10.017v-3.648h0.205l2.548 2.48v-2.48h0.194v3.649l-2.947-0.001zM25.202 10.022v-2.727h-1.379v-0.923h2.947v0.923h-1.379v2.727h-0.189zM7.936 12.665c0.231 0 0.414 0.035 0.551 0.105 0.307 0.152 0.514 0.463 0.514 0.823 0 0.006-0 0.011-0 0.017v-0.001c0 0.001 0 0.003 0 0.005 0 0.174-0.051 0.337-0.138 0.473l0.002-0.004c-0.092 0.146-0.218 0.262-0.367 0.341l-0.005 0.003c0.194 0.070 0.356 0.189 0.475 0.344l0.002 0.002c0.121 0.149 0.194 0.341 0.194 0.55 0 0.002 0 0.004-0 0.006v-0c0 0.002 0 0.005 0 0.007 0 0.183-0.052 0.353-0.141 0.498l0.002-0.004c-0.091 0.15-0.216 0.272-0.365 0.357l-0.005 0.003c-0.074 0.041-0.16 0.073-0.25 0.093l-0.007 0.001c-0.094 0.021-0.22 0.031-0.378 0.031h-1.615v-3.649h1.531zM14.084 16.049c-0.274-0.239-0.41-0.599-0.406-1.078h0.855c-0.004 0.199 0.056 0.351 0.178 0.456s0.294 0.157 0.514 0.157c0.182 0 0.325-0.030 0.43-0.089s0.157-0.15 0.157-0.273c0-0.101-0.053-0.175-0.16-0.22-0.091-0.041-0.197-0.074-0.308-0.096l-0.009-0.002c-0.105-0.019-0.17-0.031-0.194-0.035-0.268-0.050-0.501-0.117-0.726-0.202l0.029 0.010c-0.196-0.074-0.362-0.191-0.492-0.339l-0.001-0.001c-0.133-0.154-0.199-0.357-0.199-0.608s0.066-0.466 0.199-0.642c0.133-0.177 0.31-0.309 0.532-0.396 0.232-0.089 0.478-0.134 0.726-0.131 0.318 0 0.594 0.059 0.826 0.178s0.415 0.299 0.548 0.54c0.062 0.102 0.103 0.215 0.121 0.333 0.014 0.103 0.021 0.208 0.021 0.312h-0.855c0-0.189-0.051-0.328-0.152-0.417s-0.259-0.134-0.472-0.134c-0.171 0-0.304 0.030-0.399 0.089s-0.142 0.14-0.142 0.241c0 0.112 0.063 0.194 0.189 0.246 0.134 0.055 0.294 0.104 0.459 0.138l0.018 0.003c0.315 0.063 0.56 0.123 0.737 0.181 0.184 0.062 0.338 0.168 0.458 0.305l0.001 0.001c0.129 0.147 0.194 0.353 0.194 0.619 0 0.252-0.070 0.468-0.21 0.65s-0.324 0.321-0.553 0.417c-0.215 0.091-0.464 0.144-0.726 0.144-0.005 0-0.011-0-0.016-0h0.001c-0.507-0.001-0.897-0.121-1.172-0.36zM18.91 16.314v-2.727h-1.379v-0.923h2.947v0.923h-1.379v2.727h-0.189zM21.469 12.665h2.658v0.923h-1.704v0.462h1.416v0.876h-1.416v0.466h1.704v0.923h-2.658v-3.649zM28.065 16.314h-2.805v-3.649h1.421c0.304 0 0.552 0.054 0.745 0.162 0.185 0.102 0.334 0.248 0.437 0.425l0.003 0.005c0.099 0.169 0.157 0.373 0.157 0.59 0 0.005-0 0.009-0 0.014v-0.001c0 0.003 0 0.007 0 0.011 0 0.273-0.095 0.525-0.254 0.723l0.002-0.002c-0.157 0.205-0.375 0.356-0.626 0.425l-0.008 0.002 0.928 1.295zM25.453 12.984v1.882h1.348l-1.348-1.882zM25.453 16.12h2.244l-0.765-1.064-0.163 0.005h-1.316v1.059zM25.59 12.858l1.426 1.993c0.236-0.048 0.438-0.174 0.581-0.35l0.001-0.002c0.143-0.168 0.231-0.389 0.231-0.629 0-0.004-0-0.007-0-0.011v0.001c0-0.003 0-0.007 0-0.011 0-0.189-0.053-0.367-0.144-0.518l0.003 0.004c-0.095-0.157-0.231-0.281-0.393-0.359l-0.006-0.002c-0.154-0.077-0.355-0.115-0.603-0.115h-1.096z"></path>
</symbol>
<symbol id="icon-logo-mobile" viewBox="0 0 38 32">
<path fill="#000" style="fill: var(--color3, #000)" opacity="0.03" d="M-0.178 32c4.996 0 9.942-0.828 14.557-2.436s8.809-3.965 12.341-6.937c3.532-2.972 6.334-6.5 8.246-10.382s2.896-8.043 2.896-12.246h-38.040v32z"></path>
<path d="M14.789 16.452c-0.198-0.552-0.607-0.828-1.225-0.828h-0.195v3.403h0.195c0.478 0 0.831-0.188 1.059-0.565 0.192-0.321 0.288-0.731 0.288-1.228-0.001-0.295-0.041-0.556-0.121-0.782zM11.44 16.492c0.199 0.552 0.607 0.828 1.225 0.828h0.196v-3.403h-0.196c-0.478 0-0.831 0.188-1.058 0.565-0.191 0.321-0.287 0.731-0.287 1.228 0 0.295 0.040 0.556 0.12 0.783zM8.193 8.481h2.597v0.901h-1.664v0.45h1.383v0.855h-1.383v0.456h1.665v0.901h-2.597v-3.564zM12.095 8.477h3.36l-1.68 3.641-1.68-3.641zM13.775 11.668l1.388-3.001h-2.771l1.383 3.001zM16.797 8.481h2.597v0.901h-1.664v0.451h1.383v0.855h-1.383v0.456h1.665v0.901h-2.597v-3.564zM20.991 12.041v-3.564h0.2l2.489 2.422v-2.422h0.189v3.564l-2.878-0.001zM26.589 12.046v-2.663h-1.347v-0.901h2.878v0.901h-1.347v2.663h-0.184zM9.724 14.627c0.225 0 0.404 0.034 0.538 0.102 0.3 0.149 0.502 0.452 0.502 0.803 0 0.006-0 0.011-0 0.017v-0.001c0.001 0.164-0.045 0.325-0.133 0.464-0.090 0.142-0.213 0.256-0.359 0.333l-0.005 0.002c0.185 0.065 0.347 0.182 0.466 0.338 0.124 0.154 0.191 0.346 0.19 0.543 0.001 0.172-0.046 0.342-0.136 0.489s-0.211 0.265-0.356 0.348l-0.005 0.003c-0.079 0.043-0.164 0.074-0.251 0.092-0.092 0.020-0.215 0.031-0.369 0.031h-1.578v-3.564h1.495zM15.729 17.933c-0.268-0.234-0.4-0.585-0.397-1.052h0.835c-0.004 0.195 0.055 0.343 0.174 0.445s0.287 0.154 0.502 0.154c0.178 0 0.317-0.029 0.42-0.087 0.092-0.049 0.154-0.144 0.154-0.254 0-0.004-0-0.009-0-0.013l0 0.001c0-0.099-0.052-0.171-0.156-0.215-0.099-0.043-0.203-0.075-0.309-0.095 0.045 0.005-0.020-0.007-0.084-0.018l-0.106-0.016c-0.261-0.049-0.49-0.114-0.709-0.197l0.028 0.009c-0.192-0.072-0.353-0.186-0.48-0.331l-0.001-0.001c-0.13-0.15-0.195-0.348-0.195-0.594s0.065-0.455 0.195-0.628c0.132-0.173 0.308-0.306 0.512-0.384l0.008-0.003c0.204-0.081 0.441-0.128 0.689-0.128 0.007 0 0.014 0 0.021 0h-0.001c0.31 0 0.58 0.058 0.806 0.174 0.229 0.119 0.413 0.3 0.532 0.521l0.003 0.007c0.060 0.1 0.1 0.21 0.118 0.325 0.014 0.101 0.020 0.203 0.020 0.305h-0.835c0-0.184-0.049-0.32-0.148-0.407s-0.252-0.13-0.461-0.13c-0.167 0-0.297 0.029-0.389 0.087s-0.139 0.137-0.139 0.235c0 0.11 0.062 0.19 0.185 0.241 0.131 0.054 0.287 0.102 0.448 0.136l0.018 0.003c0.307 0.061 0.547 0.12 0.72 0.176 0.174 0.057 0.329 0.161 0.448 0.3 0.126 0.143 0.189 0.345 0.189 0.604 0 0.245-0.068 0.457-0.205 0.635s-0.316 0.313-0.54 0.407c-0.209 0.089-0.453 0.141-0.709 0.141-0.006 0-0.011-0-0.017-0h0.001c-0.495-0.001-0.876-0.118-1.145-0.352zM20.443 18.191v-2.663h-1.347v-0.901h2.878v0.901h-1.347v2.663h-0.184zM22.943 14.627h2.597v0.901h-1.664v0.45h1.383v0.855h-1.383v0.456h1.665v0.901h-2.597v-3.564zM29.385 18.191h-2.74v-3.564h1.388c0.297 0 0.539 0.053 0.727 0.159 0.18 0.098 0.329 0.243 0.43 0.42 0.103 0.179 0.156 0.383 0.154 0.589 0 0.003 0 0.007 0 0.011 0 0.267-0.093 0.513-0.247 0.706l0.002-0.002c-0.153 0.2-0.366 0.347-0.612 0.415l-0.008 0.002 0.907 1.265zM26.834 14.939v1.838h1.316l-1.316-1.838zM26.834 18.002h2.192l-0.748-1.040-0.159 0.005h-1.286v1.035zM26.968 14.816l1.393 1.946c0.231-0.047 0.427-0.17 0.567-0.341l0.001-0.002c0.148-0.174 0.228-0.396 0.225-0.625 0-0.003 0-0.007 0-0.012 0-0.185-0.051-0.358-0.14-0.505l0.002 0.004c-0.093-0.153-0.226-0.274-0.384-0.351l-0.005-0.002c-0.15-0.075-0.347-0.113-0.589-0.113h-1.070z"></path>
</symbol>
<symbol id="icon-logo-tablet" viewBox="0 0 38 32">
<path fill="#000" style="fill: var(--color3, #000)" opacity="0.03" d="M-0.106 32c4.995 0 9.942-0.828 14.557-2.436s8.809-3.965 12.341-6.937 6.334-6.499 8.246-10.382c1.912-3.882 2.896-8.043 2.896-12.246h-38.040v32z"></path>
<path fill="#fff" style="fill: var(--color4, #fff)" d="M14.861 16.451c-0.199-0.552-0.607-0.828-1.226-0.828h-0.195v3.403h0.195c0.478 0 0.831-0.189 1.059-0.565 0.192-0.321 0.288-0.731 0.288-1.228-0-0.296-0.041-0.556-0.121-0.783zM11.512 16.492c0.199 0.552 0.607 0.828 1.225 0.828h0.195v-3.403h-0.195c-0.478 0-0.831 0.189-1.059 0.565-0.191 0.322-0.287 0.731-0.287 1.228 0 0.295 0.040 0.556 0.12 0.783zM8.265 8.481h2.596v0.901h-1.664v0.451h1.383v0.855h-1.383v0.456h1.664v0.902h-2.596v-3.565zM12.167 8.477h3.36l-1.68 3.641-1.68-3.641zM13.847 11.668l1.388-3.001h-2.771l1.383 3.001zM16.869 8.481h2.596v0.901h-1.665v0.451h1.383v0.855h-1.383v0.456h1.665v0.902h-2.597v-3.564zM21.063 12.040v-3.564h0.2l2.489 2.422v-2.422h0.189v3.564l-2.878-0.001zM26.661 12.046v-2.663h-1.347v-0.901h2.878v0.901h-1.347v2.663h-0.184zM9.796 14.627c0.225 0 0.405 0.034 0.538 0.103 0.3 0.149 0.502 0.452 0.502 0.803 0 0.006-0 0.011-0 0.017v-0.001c0 0.001 0 0.003 0 0.005 0 0.17-0.050 0.329-0.135 0.462l0.002-0.003c-0.090 0.142-0.213 0.256-0.358 0.333l-0.005 0.002c0.19 0.068 0.348 0.185 0.464 0.336l0.002 0.002c0.124 0.154 0.191 0.345 0.189 0.543 0 0.002 0 0.005 0 0.007 0 0.178-0.050 0.345-0.138 0.486l0.002-0.004c-0.089 0.147-0.211 0.265-0.356 0.348l-0.005 0.003c-0.079 0.042-0.163 0.073-0.251 0.092-0.092 0.021-0.215 0.031-0.369 0.031h-1.578v-3.564h1.496zM15.801 17.933c-0.268-0.234-0.4-0.585-0.397-1.053h0.835c-0.003 0.195 0.054 0.343 0.174 0.446s0.287 0.154 0.502 0.154c0.177 0 0.317-0.029 0.42-0.087s0.154-0.147 0.154-0.266c0-0.099-0.052-0.171-0.156-0.215-0.089-0.040-0.193-0.073-0.301-0.093l-0.009-0.002c0.045 0.005-0.019-0.007-0.083-0.018l-0.106-0.016c-0.261-0.049-0.49-0.114-0.709-0.197l0.028 0.009c-0.192-0.072-0.353-0.186-0.48-0.331l-0.001-0.001c-0.13-0.15-0.195-0.348-0.195-0.594s0.065-0.455 0.195-0.627c0.13-0.172 0.303-0.301 0.52-0.387 0.205-0.081 0.442-0.128 0.69-0.128 0.007 0 0.014 0 0.021 0h-0.001c0.311 0 0.58 0.058 0.807 0.174s0.405 0.292 0.535 0.527c0.060 0.1 0.1 0.21 0.118 0.325 0.013 0.101 0.020 0.203 0.020 0.305h-0.835c0-0.184-0.050-0.32-0.148-0.407s-0.253-0.131-0.461-0.131c-0.167 0-0.297 0.029-0.389 0.087s-0.138 0.137-0.138 0.236c0 0.109 0.061 0.189 0.184 0.241 0.151 0.060 0.307 0.106 0.466 0.138 0.307 0.061 0.547 0.12 0.719 0.177 0.174 0.057 0.328 0.161 0.448 0.3 0.126 0.143 0.189 0.345 0.189 0.604 0 0.246-0.068 0.458-0.205 0.635s-0.317 0.313-0.54 0.407c-0.209 0.089-0.453 0.141-0.709 0.141-0.006 0-0.011-0-0.017-0h0.001c-0.495-0-0.877-0.118-1.144-0.352zM20.515 18.191v-2.663h-1.347v-0.901h2.878v0.902h-1.347v2.663h-0.184zM23.014 14.627h2.597v0.902h-1.665v0.451h1.383v0.855h-1.383v0.456h1.665v0.901h-2.597v-3.564zM29.457 18.191h-2.74v-3.564h1.388c0.297 0 0.54 0.053 0.727 0.159 0.181 0.1 0.327 0.242 0.427 0.415l0.003 0.005c0.097 0.166 0.154 0.365 0.154 0.577 0 0.004-0 0.009-0 0.013v-0.001c0 0.003 0 0.007 0 0.010 0 0.267-0.093 0.513-0.248 0.706l0.002-0.002c-0.153 0.2-0.366 0.347-0.612 0.416l-0.008 0.002 0.907 1.265zM26.907 14.939v1.839h1.316l-1.316-1.839zM26.907 18.002h2.192l-0.748-1.040-0.159 0.005h-1.285v1.035zM27.040 14.816l1.393 1.946c0.231-0.047 0.427-0.17 0.567-0.342l0.001-0.002c0.14-0.164 0.225-0.379 0.225-0.614 0-0.004-0-0.008-0-0.011v0.001c0-0.003 0-0.007 0-0.011 0-0.185-0.051-0.358-0.141-0.505l0.002 0.004c-0.093-0.153-0.226-0.274-0.384-0.351l-0.005-0.002c-0.15-0.075-0.346-0.113-0.589-0.113h-1.070z"></path>
</symbol>
<symbol id="icon-loop-icon" viewBox="0 0 32 32">
<path  d="M4.024 4.024c2.472-2.486 5.895-4.024 9.677-4.024 0.013 0 0.026 0 0.040 0h-0.002c3.669 0 7.12 1.429 9.715 4.024 2.487 2.473 4.027 5.896 4.027 9.68 0 0.012-0 0.025-0 0.037v-0.002c0 0.010 0 0.023 0 0.035 0 3.453-1.284 6.607-3.4 9.010l0.013-0.015 7.632 7.629c0.17 0.17 0.275 0.405 0.275 0.664 0 0.519-0.42 0.939-0.939 0.939-0.259 0-0.494-0.105-0.664-0.275l-7.629-7.629c-2.387 2.1-5.538 3.381-8.988 3.381-0.014 0-0.029-0-0.043-0h0.002c-0.010 0-0.023 0-0.035 0-3.782 0-7.205-1.538-9.677-4.023l-0.001-0.001c-2.487-2.473-4.027-5.896-4.027-9.68 0-0.012 0-0.025 0-0.037v0.002c0-3.669 1.429-7.12 4.024-9.715zM5.352 22.128c2.148 2.143 5.113 3.468 8.387 3.468s6.239-1.325 8.387-3.468l-0 0c2.144-2.148 3.469-5.113 3.469-8.388s-1.326-6.24-3.47-8.388l0 0c-2.14-2.143-5.099-3.469-8.367-3.469-0.006 0-0.012 0-0.018 0h0.001c-0.006 0-0.014-0-0.021-0-3.267 0-6.225 1.325-8.365 3.467l-0 0c-2.145 2.148-3.471 5.114-3.471 8.389s1.326 6.241 3.471 8.389l-0-0z"></path>
</symbol>
<symbol id="icon-ticket1" viewBox="0 0 45 32">
<path d="M5.020 1.568h-5.020v30.118h5.020v-30.118zM17.645 1.568h-5.020v30.118h5.020v-30.118zM25.25 1.568h-5.018v30.118h5.018v-30.118zM45.176 1.568h-7.454v30.118h7.454v-30.118zM10.039 1.568h-2.434v30.118h2.434v-30.118zM30.118 1.568h-2.434v30.118h2.434v-30.118zM35.138 1.568h-2.434v30.118h2.434v-30.118z"></path>
</symbol>
<symbol id="icon-map" viewBox="0 0 21 32">
<path fill="" style="fill: " d="M10.667 0c-5.882 0-10.667 4.99-10.667 11.123 0 7.709 10.677 20.877 10.677 20.877s10.656-13.547 10.656-20.877c0-6.133-4.785-11.123-10.667-11.123zM13.885 14.38c-0.887 0.925-2.053 1.388-3.218 1.388s-2.331-0.463-3.218-1.388c-1.775-1.85-1.775-4.861 0-6.712 0.859-0.896 2.002-1.39 3.218-1.39s2.359 0.494 3.218 1.39c1.775 1.851 1.775 4.861 0 6.712z"></path>
</symbol>
<symbol id="icon-home" viewBox="0 0 32 32">
<path d="M32 18.451l-16-12.42-16 12.42v-5.064l16-12.42 16 12.42zM28 18v12h-8v-8h-8v8h-8v-12l12-9z"></path>
</symbol>
<symbol id="icon-facebook" viewBox="0 0 32 32">
<path d="M19 6h5v-6h-5c-3.86 0-7 3.14-7 7v3h-4v6h4v16h6v-16h5l1-6h-6v-3c0-0.542 0.458-1 1-1z"></path>
</symbol>
<symbol id="icon-twitter" viewBox="0 0 32 32">
<path d="M32 7.075c-1.175 0.525-2.444 0.875-3.769 1.031 1.356-0.813 2.394-2.1 2.887-3.631-1.269 0.75-2.675 1.3-4.169 1.594-1.2-1.275-2.906-2.069-4.794-2.069-3.625 0-6.563 2.938-6.563 6.563 0 0.512 0.056 1.012 0.169 1.494-5.456-0.275-10.294-2.888-13.531-6.862-0.563 0.969-0.887 2.1-0.887 3.3 0 2.275 1.156 4.287 2.919 5.463-1.075-0.031-2.087-0.331-2.975-0.819 0 0.025 0 0.056 0 0.081 0 3.181 2.263 5.838 5.269 6.437-0.55 0.15-1.131 0.231-1.731 0.231-0.425 0-0.831-0.044-1.237-0.119 0.838 2.606 3.263 4.506 6.131 4.563-2.25 1.762-5.075 2.813-8.156 2.813-0.531 0-1.050-0.031-1.569-0.094 2.913 1.869 6.362 2.95 10.069 2.95 12.075 0 18.681-10.006 18.681-18.681 0-0.287-0.006-0.569-0.019-0.85 1.281-0.919 2.394-2.075 3.275-3.394z"></path>
</symbol>
<symbol id="icon-wikipedia" viewBox="0 0 32 32">
<path d="M30.212 7.3c0 0.1-0.031 0.194-0.094 0.281-0.063 0.081-0.131 0.125-0.212 0.125-0.625 0.063-1.137 0.263-1.531 0.6-0.4 0.338-0.806 0.994-1.225 1.95l-6.45 14.544c-0.044 0.137-0.163 0.2-0.356 0.2-0.15 0-0.269-0.069-0.356-0.2l-3.619-7.563-4.162 7.563c-0.088 0.137-0.2 0.2-0.356 0.2-0.188 0-0.306-0.069-0.369-0.2l-6.331-14.537c-0.394-0.9-0.813-1.531-1.25-1.887s-1.050-0.581-1.831-0.662c-0.069 0-0.131-0.037-0.188-0.106-0.063-0.069-0.087-0.15-0.087-0.244 0-0.237 0.069-0.356 0.2-0.356 0.562 0 1.156 0.025 1.775 0.075 0.575 0.050 1.112 0.075 1.619 0.075 0.513 0 1.125-0.025 1.825-0.075 0.731-0.050 1.381-0.075 1.95-0.075 0.137 0 0.2 0.119 0.2 0.356s-0.044 0.35-0.125 0.35c-0.563 0.044-1.012 0.188-1.338 0.431s-0.487 0.563-0.487 0.963c0 0.2 0.069 0.456 0.2 0.756l5.231 11.825 2.975-5.613-2.769-5.806c-0.5-1.037-0.906-1.706-1.225-2.006s-0.806-0.481-1.456-0.55c-0.063 0-0.113-0.037-0.169-0.106s-0.081-0.15-0.081-0.244c0-0.237 0.056-0.356 0.175-0.356 0.563 0 1.081 0.025 1.556 0.075 0.456 0.050 0.938 0.075 1.456 0.075 0.506 0 1.037-0.025 1.606-0.075 0.581-0.050 1.156-0.075 1.719-0.075 0.137 0 0.2 0.119 0.2 0.356s-0.038 0.35-0.125 0.35c-1.131 0.075-1.694 0.4-1.694 0.963 0 0.25 0.131 0.644 0.394 1.175l1.831 3.719 1.825-3.4c0.25-0.481 0.381-0.887 0.381-1.213 0-0.775-0.563-1.188-1.694-1.237-0.1 0-0.15-0.119-0.15-0.35 0-0.088 0.025-0.162 0.075-0.237s0.1-0.112 0.15-0.112c0.406 0 0.9 0.025 1.494 0.075 0.563 0.050 1.031 0.075 1.394 0.075 0.262 0 0.644-0.025 1.15-0.063 0.637-0.056 1.175-0.088 1.606-0.088 0.1 0 0.15 0.1 0.15 0.3 0 0.269-0.094 0.406-0.275 0.406-0.656 0.069-1.188 0.25-1.587 0.544s-0.9 0.963-1.5 2.013l-2.444 4.475 3.288 6.7 4.856-11.294c0.169-0.412 0.25-0.794 0.25-1.137 0-0.825-0.563-1.263-1.694-1.319-0.1 0-0.15-0.119-0.15-0.35 0-0.237 0.075-0.356 0.225-0.356 0.413 0 0.9 0.025 1.469 0.075 0.525 0.050 0.962 0.075 1.313 0.075 0.375 0 0.8-0.025 1.288-0.075 0.506-0.050 0.962-0.075 1.369-0.075 0.125 0 0.188 0.1 0.188 0.3z"></path>
</symbol>
</defs>
 <symbol id="icon-circle-up" viewBox="0 0 32 32">
      <path
        d="M0 16c0 8.837 7.163 16 16 16s16-7.163 16-16-7.163-16-16-16-16 7.163-16 16zM29 16c0 7.18-5.82 13-13 13s-13-5.82-13-13 5.82-13 13-13 13 5.82 13 13z">
      </path>
      <path d="M22.086 20.914l2.829-2.829-8.914-8.914-8.914 8.914 2.828 2.828 6.086-6.086z"></path>
    </symbol>

</svg>
